#!OML:ASF H:\charlestonDancing\Project 1\Capture day 1\Session 1\femaleDancer.ASF
:FULLY-SPECIFIED
:DEGREES
1166
root -15.0869 17.546 0.17357 -33.001 -91.6983 34.7037
lowerback 6.60373 -0.673271 1.48584
upperback -3.90233 -0.856629 -1.05554
thorax -7.85199 -0.541487 -1.83087
lowerneck 1.40146 0.466601 3.54387
upperneck -10.1684 0.613316 -0.465386
head -3.51709 0.129393 -0.788221
rclavicle 1.30701e-014 8.34896e-015
rhumerus -276.193 254.38 -107.028
rradius 14.1564
rwrist 98.9109
rhand -20.372 -30.7851
rfingers 7.12502
rthumb 185.981 119.319
lclavicle 1.30701e-014 8.34896e-015
lhumerus -29.4207 48.9494 2.17429
lradius 13.1092
lwrist -38.8344
lhand -16.5448 24.4805
lfingers 7.12502
lthumb 9.67459 54.2383
rfemur -12.2164 -5.77306 24.2123
rtibia 37.9723
rfoot -25.461 -2.45504
rtoes -8.52136
lfemur -12.3562 -0.686122 -21.4895
ltibia 39.8162
lfoot -21.4676 -6.05821
ltoes -15.3024
1167
root -15.0852 17.537 0.1606 -36.5284 -92.0908 38.2316
lowerback 6.54074 -0.55223 1.6734
upperback -3.87444 -0.668838 -0.965971
thorax -7.77826 -0.455383 -1.86749
lowerneck 1.34384 0.451841 3.52017
upperneck -10.0722 0.594646 -0.427727
head -3.47286 0.121603 -0.770102
rclavicle -7.47927e-015 -7.55382e-015
rhumerus -277.415 254.361 -105.803
rradius 14.2008
rwrist 99.2185
rhand -20.1952 -30.8129
rfingers 7.12502
rthumb 186.151 119.296
lclavicle -7.47927e-015 -7.55382e-015
lhumerus -29.6155 50.0402 1.65688
lradius 13.0269
lwrist -40.176
lhand -16.5482 23.9457
lfingers 7.12502
lthumb 9.67124 53.7037
rfemur -11.973 -5.31199 24.6963
rtibia 37.9341
rfoot -25.5489 -3.07934
rtoes -10.0042
lfemur -12.4125 -0.514017 -21.0895
ltibia 39.8545
lfoot -21.5409 -5.86581
ltoes -16.0362
1168
root -15.0864 17.5471 0.150031 -34.7708 -92.2273 36.5109
lowerback 6.64366 -0.473186 1.62361
upperback -3.98702 -0.569127 -0.977662
thorax -7.95417 -0.407733 -1.86467
lowerneck 1.33794 0.456149 3.51338
upperneck -9.84009 0.60747 -0.396315
head -3.39067 0.132677 -0.7577
rclavicle -4.12478e-015 0
rhumerus -275.121 254.248 -108.169
rradius 14.1873
rwrist 98.7668
rhand -20.1514 -30.61
rfingers 7.12502
rthumb 186.194 119.501
lclavicle -4.12478e-015 0
lhumerus -29.5916 50.2912 1.46386
lradius 12.992
lwrist -40.8416
lhand -16.8232 23.443
lfingers 7.12502
lthumb 9.4059 53.2131
rfemur -12.2792 -4.83314 24.7941
rtibia 37.9145
rfoot -25.232 -3.03675
rtoes -8.84388
lfemur -12.4559 -0.484041 -21.0096
ltibia 39.9027
lfoot -21.5701 -6.01929
ltoes -15.134
1169
root -15.0832 17.5456 0.147064 -31.634 -92.0996 33.4206
lowerback 6.62825 -0.466893 1.47942
upperback -4.01725 -0.582668 -1.05846
thorax -7.97747 -0.410078 -1.86697
lowerneck 1.2816 0.477974 3.51808
upperneck -9.73276 0.638783 -0.362614
head -3.34202 0.148962 -0.747495
rclavicle -3.05631e-015 2.78299e-015
rhumerus -272.071 254.165 -111.371
rradius 14.1679
rwrist 97.9959
rhand -20.0697 -30.5448
rfingers 7.12502
rthumb 186.273 119.568
lclavicle -3.05631e-015 2.78299e-015
lhumerus -29.227 49.8233 1.79804
lradius 13.0445
lwrist -40.4559
lhand -16.9249 23.8036
lfingers 7.12502
lthumb 9.30779 53.5781
rfemur -12.3229 -4.92698 24.613
rtibia 37.9014
rfoot -25.2156 -3.00412
rtoes -8.91601
lfemur -12.5177 -0.562711 -21.1834
ltibia 39.933
lfoot -21.5444 -6.11621
ltoes -14.5602
1170
root -15.0765 17.5366 0.145274 -32.2803 -92.0349 34.1146
lowerback 6.60933 -0.486603 1.49113
upperback -4.03135 -0.610494 -1.08326
thorax -7.98342 -0.425501 -1.89604
lowerneck 1.293 0.501892 3.56832
upperneck -9.72582 0.672173 -0.382725
head -3.34111 0.16467 -0.76397
rclavicle -3.23025e-016 6.36111e-015
rhumerus -271.528 254.188 -111.966
rradius 14.1529
rwrist 97.893
rhand -19.8559 -30.6533
rfingers 7.12502
rthumb 186.479 119.466
lclavicle -3.23025e-016 6.36111e-015
lhumerus -28.8234 49.1229 2.27522
lradius 13.1586
lwrist -39.6287
lhand -16.7199 24.3246
lfingers 7.12502
lthumb 9.50558 54.0902
rfemur -12.1674 -5.18451 24.6286
rtibia 37.9163
rfoot -25.3686 -3.32655
rtoes -10.6098
lfemur -12.6029 -0.601273 -21.1899
ltibia 39.9279
lfoot -21.5108 -6.06692
ltoes -14.9355
1171
root -15.0775 17.5475 0.141775 -35.7564 -92.0572 37.6288
lowerback 6.62563 -0.516566 1.60881
upperback -4.06594 -0.636516 -1.04981
thorax -8.0327 -0.444518 -1.92342
lowerneck 1.3558 0.528281 3.62588
upperneck -9.71745 0.706679 -0.469217
head -3.34942 0.183618 -0.803914
rclavicle -5.1684e-015 1.19271e-015
rhumerus -272.405 254.294 -111.042
rradius 14.1059
rwrist 98.2141
rhand -19.7469 -30.8268
rfingers 7.12502
rthumb 186.584 119.296
lclavicle -5.1684e-015 1.19271e-015
lhumerus -28.326 47.8847 3.0085
lradius 13.3374
lwrist -38.2271
lhand -16.4315 24.5924
lfingers 7.12502
lthumb 9.7839 54.3451
rfemur -12.4602 -4.93092 24.767
rtibia 37.9187
rfoot -25.0943 -3.06754
rtoes -8.70119
lfemur -12.6468 -0.577898 -21.0311
ltibia 39.9185
lfoot -21.4763 -6.14616
ltoes -15.1086
1172
root -15.0763 17.5474 0.140063 -38.1773 -92.0424 40.0582
lowerback 6.63256 -0.546816 1.68764
upperback -4.0702 -0.668112 -1.03841
thorax -8.04393 -0.464059 -1.95146
lowerneck 1.34041 0.560527 3.61192
upperneck -9.69978 0.747354 -0.487098
head -3.33937 0.205317 -0.808408
rclavicle -1.78906e-015 -5.1684e-015
rhumerus -272.098 254.361 -111.389
rradius 14.0861
rwrist 98.1082
rhand -19.7649 -30.8071
rfingers 7.12502
rthumb 186.567 119.315
lclavicle -1.78906e-015 -5.1684e-015
lhumerus -27.8923 46.7674 3.67138
lradius 13.4985
lwrist -36.978
lhand -16.2248 24.7842
lfingers 7.12502
lthumb 9.9833 54.5275
rfemur -12.4554 -4.98698 24.8463
rtibia 37.8877
rfoot -24.9968 -3.12079
rtoes -9.05386
lfemur -12.6885 -0.546038 -20.943
ltibia 39.9583
lfoot -21.4314 -6.2805
ltoes -15.0355
1173
root -15.0749 17.5476 0.138108 -39.1169 -92.0141 40.9838
lowerback 6.61783 -0.564608 1.71846
upperback -4.08032 -0.690492 -1.05316
thorax -8.04809 -0.477447 -1.98141
lowerneck 1.51226 0.565072 3.67788
upperneck -9.78789 0.762336 -0.515105
head -3.40243 0.210396 -0.831578
rclavicle -7.45443e-016 -6.36111e-015
rhumerus -269.926 254.309 -113.705
rradius 14.1109
rwrist 97.5197
rhand -19.8255 -30.6888
rfingers 7.12502
rthumb 186.508 119.431
lclavicle -7.45443e-016 -6.36111e-015
lhumerus -27.8493 46.6651 3.69511
lradius 13.5015
lwrist -36.9001
lhand -16.175 24.7679
lfingers 7.12502
lthumb 10.0313 54.5088
rfemur -12.4257 -4.9665 24.863
rtibia 37.8594
rfoot -24.944 -3.08938
rtoes -8.61962
lfemur -12.6765 -0.556078 -20.9138
ltibia 39.9685
lfoot -21.3633 -6.40273
ltoes -14.6362
1174
root -15.0719 17.5485 0.136192 -41.2721 -92.0356 43.1593
lowerback 6.57962 -0.590008 1.80224
upperback -4.1883 -0.717642 -1.03569
thorax -8.14477 -0.497798 -2.00651
lowerneck 2.19568 0.544306 3.89243
upperneck -10.0909 0.763759 -0.700379
head -3.63996 0.207766 -0.938351
rclavicle 7.20594e-015 1.98785e-015
rhumerus -268.567 254.203 -115.115
rradius 14.1246
rwrist 97.4954
rhand -20.0343 -30.5306
rfingers 7.12502
rthumb 186.307 119.583
lclavicle 7.20594e-015 1.98785e-015
lhumerus -27.9285 46.3837 3.60519
lradius 13.4608
lwrist -36.8482
lhand -16.2335 24.7392
lfingers 7.12502
lthumb 9.97491 54.4829
rfemur -12.4343 -4.91219 24.9672
rtibia 37.8221
rfoot -24.81 -3.18779
rtoes -8.49941
lfemur -12.7307 -0.523094 -20.8074
ltibia 40.0208
lfoot -21.2656 -6.56941
ltoes -14.3045
1175
root -15.0687 17.5495 0.13621 -42.5903 -92.0015 44.5255
lowerback 6.52534 -0.607312 1.87124
upperback -4.07373 -0.732498 -1.03572
thorax -7.99139 -0.505191 -2.0438
lowerneck 2.01828 0.558402 4.02662
upperneck -10.2688 0.757371 -0.897232
head -3.66853 0.20194 -1.02688
rclavicle 5.73991e-015 1.03368e-014
rhumerus -271.935 254.356 -111.702
rradius 14.1049
rwrist 98.5178
rhand -20.3745 -30.3094
rfingers 7.12502
rthumb 185.978 119.795
lclavicle 5.73991e-015 1.03368e-014
lhumerus -27.6811 46.133 3.96453
lradius 13.4381
lwrist -36.3621
lhand -16.4111 24.9004
lfingers 7.12502
lthumb 9.80354 54.6522
rfemur -12.4783 -4.97715 24.9956
rtibia 37.7892
rfoot -24.5765 -3.39306
rtoes -9.80566
lfemur -12.8356 -0.44284 -20.7746
ltibia 40.0776
lfoot -21.1333 -6.76666
ltoes -14.1575
1176
root -15.0639 17.5514 0.135201 -43.5593 -92.0136 45.5221
lowerback 6.51276 -0.6138 1.94665
upperback -3.97065 -0.730857 -1.02322
thorax -7.87404 -0.504851 -2.07351
lowerneck 1.83049 0.589582 4.06934
upperneck -10.3811 0.774479 -1.03604
head -3.67121 0.210261 -1.08032
rclavicle -2.48481e-016 -6.36111e-015
rhumerus -274.186 254.435 -109.446
rradius 14.0678
rwrist 99.3063
rhand -20.6208 -30.0827
rfingers 7.12502
rthumb 185.74 120.015
lclavicle -2.48481e-016 -6.36111e-015
lhumerus -27.2622 45.2011 4.66573
lradius 13.4931
lwrist -35.2504
lhand -16.617 24.9274
lfingers 7.12502
lthumb 9.60487 54.6884
rfemur -12.5125 -4.95506 25.0515
rtibia 37.7642
rfoot -24.7535 -3.3741
rtoes -9.11893
lfemur -12.9426 -0.407283 -20.7146
ltibia 40.1341
lfoot -21.0434 -6.91375
ltoes -13.7562
1177
root -15.0544 17.5517 0.131199 -45.5673 -92.124 47.5555
lowerback 6.60126 -0.604297 2.06685
upperback -3.92761 -0.698894 -0.966021
thorax -7.87876 -0.492807 -2.08474
lowerneck 1.69268 0.604444 4.07567
upperneck -10.4075 0.775917 -1.14075
head -3.65382 0.213291 -1.1152
rclavicle 1.81391e-015 2.10712e-014
rhumerus -275.815 254.475 -107.799
rradius 14.0596
rwrist 99.7106
rhand -20.9083 -30.1186
rfingers 7.12502
rthumb 185.463 119.972
lclavicle 1.81391e-015 2.10712e-014
lhumerus -26.9485 44.327 5.27265
lradius 13.5616
lwrist -34.3226
lhand -16.6549 24.8317
lfingers 7.12502
lthumb 9.56827 54.5945
rfemur -12.5793 -4.74912 25.2455
rtibia 37.7612
rfoot -24.7507 -3.4637
rtoes -8.49583
lfemur -13.0335 -0.320554 -20.5357
ltibia 40.173
lfoot -20.9809 -7.023
ltoes -13.4441
1178
root -15.0466 17.5507 0.128665 -45.5451 -92.103 47.5466
lowerback 6.66658 -0.59131 2.07012
upperback -3.90817 -0.678293 -0.952616
thorax -7.89467 -0.482155 -2.07493
lowerneck 1.71191 0.5887 4.05057
upperneck -10.4549 0.747876 -1.20255
head -3.67502 0.202029 -1.13093
rclavicle -1.81391e-015 -8.74653e-015
rhumerus -275.463 254.467 -108.174
rradius 14.0708
rwrist 99.4785
rhand -20.9309 -30.4165
rfingers 7.12502
rthumb 185.441 119.673
lclavicle -1.81391e-015 -8.74653e-015
lhumerus -26.6102 43.163 5.96897
lradius 13.7062
lwrist -33.1121
lhand -16.5391 25.0661
lfingers 7.12502
lthumb 9.68004 54.8237
rfemur -12.645 -4.64631 25.2578
rtibia 37.79
rfoot -24.6933 -3.55822
rtoes -8.18832
lfemur -13.0716 -0.196773 -20.533
ltibia 40.1758
lfoot -20.9184 -7.05994
ltoes -13.6588
1179
root -15.0408 17.5506 0.128181 -44.3945 -91.9807 46.3882
lowerback 6.69414 -0.580709 2.01409
upperback -3.89841 -0.67084 -0.976747
thorax -7.89927 -0.476127 -2.06974
lowerneck 1.8089 0.569504 3.99694
upperneck -10.4972 0.722562 -1.22204
head -3.70933 0.192355 -1.12832
rclavicle 9.64106e-015 -1.03368e-014
rhumerus -273.585 254.381 -110.103
rradius 14.0788
rwrist 99.1285
rhand -20.4771 -30.4004
rfingers 7.12502
rthumb 185.879 119.701
lclavicle 9.64106e-015 -1.03368e-014
lhumerus -26.2583 41.6945 6.72803
lradius 13.8784
lwrist -31.5897
lhand -16.3933 25.155
lfingers 7.12502
lthumb 9.82075 54.906
rfemur -12.6926 -4.71793 25.1288
rtibia 37.8431
rfoot -24.6892 -3.57421
rtoes -8.06859
lfemur -13.0784 -0.194106 -20.6614
ltibia 40.1483
lfoot -20.8792 -7.01104
ltoes -13.9574
